<?xml version="1.0" encoding="UTF-8" standalone="no"?>
<!-- Created with Inkscape (http://www.inkscape.org/) -->

<svg
   xmlns:dc="http://purl.org/dc/elements/1.1/"
   xmlns:cc="http://creativecommons.org/ns#"
   xmlns:rdf="http://www.w3.org/1999/02/22-rdf-syntax-ns#"
   xmlns:svg="http://www.w3.org/2000/svg"
   xmlns="http://www.w3.org/2000/svg"
   xmlns:xlink="http://www.w3.org/1999/xlink"
   xmlns:sodipodi="http://sodipodi.sourceforge.net/DTD/sodipodi-0.dtd"
   xmlns:inkscape="http://www.inkscape.org/namespaces/inkscape"
   version="1.1"
   id="svgdata"
   inkscape:version="0.48.1 r9760"
   width="150"
   height="140.97163"
   sodipodi:docname="macccc.svg">
  <defs
     id="defs7" />
  <sodipodi:namedview
     pagecolor="#ffffff"
     bordercolor="#666666"
     borderopacity="1"
     objecttolerance="10"
     gridtolerance="10"
     guidetolerance="10"
     inkscape:pageopacity="0"
     inkscape:pageshadow="2"
     inkscape:window-width="1024"
     inkscape:window-height="576"
     id="namedview5"
     showgrid="false"
     inkscape:zoom="0.30407782"
     inkscape:cx="188.46928"
     inkscape:cy="-36.1045"
     inkscape:window-x="0"
     inkscape:window-y="24"
     inkscape:window-maximized="1"
     inkscape:current-layer="svgdata"
     fit-margin-top="0"
     fit-margin-left="0"
     fit-margin-right="0"
     fit-margin-bottom="0" />
  <metadata
     id="metadata8">
    <rdf:RDF>
      <cc:Work
         rdf:about="">
        <dc:format>image/svg+xml</dc:format>
        <dc:type
           rdf:resource="http://purl.org/dc/dcmitype/StillImage" />
      </cc:Work>
    </rdf:RDF>
  </metadata>
  <path
     sodipodi:type="inkscape:offset"
     inkscape:radius="0"
     inkscape:original="M 65.75 13.875 C 64.505573 13.88617 63.242907 14.026104 61.96875 14.3125 C 50.724772 16.111543 36.182561 13.008816 28.5 23.59375 C 24.164445 33.536 22.051683 44.470721 21.25 55.28125 C 21.711675 65.296013 22.891885 76.693427 12.875 82.875 C 3.4727192 89.81037 0.86280436 101.68871 -1.53125 112.4375 C -3.5881045 126.22853 -6.1478721 141.87293 2.1875 154.1875 C 15.129202 174.2655 38.894548 183.01393 61.25 187.6875 C 77.164909 189.19466 93.153964 189.23253 109.125 189.0625 C 125.2139 188.10798 142.04531 191.2529 157.3125 184.6875 C 175.24764 179.46627 188.50808 164.566 196.25 148.09375 L 196.25 117.875 C 195.58917 110.09937 197.8726 101.89673 194.84375 94.5 C 187.65877 87.812063 183.52707 78.45247 176.40625 71.65625 C 165.58299 67.682805 168.0492 55.207047 168 45.71875 C 168.68175 34.34589 165.31779 18.954451 152.03125 16.8125 C 141.45137 17.139637 130.34224 16.898621 120.375 21.0625 C 108.43247 25.7984 106.22317 39.786666 103.625 50.8125 C 106.30821 58.262895 96.983478 69.521015 90 62.1875 C 87.882665 51.211393 86.552343 39.894268 83.375 29.09375 C 82.066403 20.173299 74.460989 13.796808 65.75 13.875 z M 51.875 31.40625 C 61.421968 31.084109 66.892972 41.161952 64.3125 51 C 70.363271 64.861317 53.685136 64.7589 44.25 64.71875 C 36.860165 68.872107 30.118374 64.030703 33.6875 55.78125 C 36.026341 47.14346 36.317805 33.720046 47.53125 32.21875 C 49.050017 31.717178 50.511147 31.45227 51.875 31.40625 z M 136.09375 42.21875 C 143.55284 43.704836 143.90524 56.628717 144.84375 63.125 C 142.28863 66.766744 137.01896 65.671238 133.15625 66.3125 C 120.91513 64.988855 122.36028 45.977751 132.4375 42.34375 C 133.81642 42.037247 135.02817 42.006452 136.09375 42.21875 z M 45.03125 81.34375 C 50.82914 80.827355 56.9065 82.341177 61.96875 85.5625 C 71.129676 86.535498 80.355197 86.857568 89.5625 86.96875 C 108.72317 86.59451 127.84723 87.753336 147 87.84375 C 157.71861 85.049171 169.68425 88.757595 173.65625 100.09375 C 183.29808 114.51017 183.99652 134.65206 173.84375 149 C 166.10977 162.98826 148.88232 165.04129 135.25 170 C 121.19221 172.10157 106.93216 172.19015 92.75 172 C 70.347163 172.83711 46.662967 169.04648 28.375 155.21875 C 20.431276 150.06725 13.562303 142.13626 13.84375 132.09375 C 14.863325 116.87827 17.858008 99.934328 29.8125 89.28125 C 33.72345 84.403414 39.23336 81.860145 45.03125 81.34375 z M 111.3125 96.21875 C 109.3946 96.033252 107.3915 96.35002 105.8125 97.4375 C 97.726017 104.43709 86.297028 104.20101 76.4375 102.09375 C 68.540434 97.052642 61.077554 107.12498 72.5 108.59375 C 87.893101 108.7382 62.021999 117.2493 69 124.28125 C 78.049831 125.66542 81.572675 112.92076 91.09375 113.0625 C 102.88992 110.8537 110.51783 126.87433 121.875 123.75 C 130.74958 113.42731 108.42518 112.26768 113.0625 104.875 C 122.09184 101.91769 117.06619 96.775244 111.3125 96.21875 z M 93.0625 134.1875 C 86.241227 135.02764 77.555664 133.03149 72.46875 138.625 C 65.969076 147.65551 70.974372 159.94121 77 167.875 C 85.896461 173.91803 97.483398 167.8807 105.4375 162.96875 C 113.64154 157.96947 123.1969 145.64136 115.375 136.59375 C 108.8498 132.83245 100.42125 134.91598 93.0625 134.1875 z M 90.78125 141.40625 C 93.250829 141.16712 95.863137 141.59524 98.25 142.875 C 110.51387 138.60229 105.72821 156.27646 97.15625 156.71875 C 93.397813 159.9913 86.24932 162.12524 83.1875 156.71875 C 77.339667 148.84247 83.372514 142.12363 90.78125 141.40625 z "
     xlink:href="#macpath"
     style="fill:#000000"
     id="macpath"
     d="m 65.75,13.875 c -1.244427,0.01117 -2.507093,0.151104 -3.78125,0.4375 C 50.724772,16.111543 36.182561,13.008816 28.5,23.59375 24.164445,33.536 22.051683,44.470721 21.25,55.28125 21.711675,65.296013 22.891885,76.693427 12.875,82.875 3.4727192,89.81037 0.86280436,101.68871 -1.53125,112.4375 c -2.0568545,13.79103 -4.6166221,29.43543 3.71875,41.75 12.941702,20.078 36.707048,28.82643 59.0625,33.5 15.914909,1.50716 31.903964,1.54503 47.875,1.375 16.0889,-0.95452 32.92031,2.1904 48.1875,-4.375 17.93514,-5.22123 31.19558,-20.1215 38.9375,-36.59375 l 0,-30.21875 C 195.58917,110.09937 197.8726,101.89673 194.84375,94.5 187.65877,87.812063 183.52707,78.45247 176.40625,71.65625 165.58299,67.682805 168.0492,55.207047 168,45.71875 168.68175,34.34589 165.31779,18.954451 152.03125,16.8125 c -10.57988,0.327137 -21.68901,0.08612 -31.65625,4.25 -11.94253,4.7359 -14.15183,18.724166 -16.75,29.75 C 106.30821,58.262895 96.983478,69.521015 90,62.1875 87.882665,51.211393 86.552343,39.894268 83.375,29.09375 82.066403,20.173299 74.460989,13.796808 65.75,13.875 z M 51.875,31.40625 C 61.421968,31.084109 66.892972,41.161952 64.3125,51 70.363271,64.861317 53.685136,64.7589 44.25,64.71875 c -7.389835,4.153357 -14.131626,-0.688047 -10.5625,-8.9375 2.338841,-8.63779 2.630305,-22.061204 13.84375,-23.5625 1.518767,-0.501572 2.979897,-0.76648 4.34375,-0.8125 z m 84.21875,10.8125 c 7.45909,1.486086 7.81149,14.409967 8.75,20.90625 -2.55512,3.641744 -7.82479,2.546238 -11.6875,3.1875 -12.24112,-1.323645 -10.79597,-20.334749 -0.71875,-23.96875 1.37892,-0.306503 2.59067,-0.337298 3.65625,-0.125 z m -91.0625,39.125 c 5.79789,-0.516395 11.87525,0.997427 16.9375,4.21875 9.160926,0.972998 18.386447,1.295068 27.59375,1.40625 19.16067,-0.37424 38.28473,0.784586 57.4375,0.875 10.71861,-2.794579 22.68425,0.913845 26.65625,12.25 9.64183,14.41642 10.34027,34.55831 0.1875,48.90625 -7.73398,13.98826 -24.96143,16.04129 -38.59375,21 -14.05779,2.10157 -28.31784,2.19015 -42.5,2 -22.402837,0.83711 -46.087033,-2.95352 -64.375,-16.78125 -7.943724,-5.1515 -14.812697,-13.08249 -14.53125,-23.125 1.019575,-15.21548 4.014258,-32.159422 15.96875,-42.8125 3.91095,-4.877836 9.42086,-7.421105 15.21875,-7.9375 z m 66.28125,14.875 c -1.9179,-0.185498 -3.921,0.13127 -5.5,1.21875 -8.086483,6.99959 -19.515472,6.76351 -29.375,4.65625 -7.897066,-5.041108 -15.359946,5.03123 -3.9375,6.5 15.393101,0.14445 -10.478001,8.65555 -3.5,15.6875 9.049831,1.38417 12.572675,-11.36049 22.09375,-11.21875 11.79617,-2.2088 19.42408,13.81183 30.78125,10.6875 8.87458,-10.32269 -13.44982,-11.48232 -8.8125,-18.875 9.02934,-2.95731 4.00369,-8.099756 -1.75,-8.65625 z m -18.25,37.96875 c -6.821273,0.84014 -15.506836,-1.15601 -20.59375,4.4375 -6.499674,9.03051 -1.494378,21.31621 4.53125,29.25 8.896461,6.04303 20.483398,0.006 28.4375,-4.90625 8.20404,-4.99928 17.7594,-17.32739 9.9375,-26.375 -6.5252,-3.7613 -14.95375,-1.67777 -22.3125,-2.40625 z m -2.28125,7.21875 c 2.469579,-0.23913 5.081887,0.18899 7.46875,1.46875 12.26387,-4.27271 7.47821,13.40146 -1.09375,13.84375 -3.758437,3.27255 -10.90693,5.40649 -13.96875,0 -5.847833,-7.87628 0.185014,-14.59512 7.59375,-15.3125 z"
     transform="matrix(0.74984213,0,0,0.80436963,2.6854371,-11.160056)" />
</svg>
